<svg version="1.1" id="Layer_1" xmlns="http://www.w3.org/2000/svg" xmlns:xlink="http://www.w3.org/1999/xlink" x="0px" y="0px"
	 width="100%" viewBox="0 0 496 496" enable-background="new 0 0 496 496" xml:space="preserve">
<path fill="#000000" opacity="1.000000" stroke="none" 
	d="
M192.838348,427.335510 
	C142.450760,411.447021 106.481880,379.416229 84.170540,332.284912 
	C70.081039,302.521729 66.306229,270.783844 69.539223,238.181152 
	C72.743698,205.866058 83.075256,176.019073 102.545280,149.893082 
	C131.727798,110.734299 170.717941,87.594841 219.158401,80.639816 
	C261.257904,74.595222 301.388428,80.634262 338.158752,102.440842 
	C380.710785,127.676247 408.237854,164.615906 420.236786,212.860306 
	C420.924347,215.624756 420.107758,219.206375 423.976562,220.739380 
	C424.784149,221.059357 425.049011,223.211533 424.208954,224.431931 
	C422.809601,226.464905 423.102264,228.892792 422.273010,231.128571 
	C424.010071,231.992233 426.648529,232.159348 425.896881,234.955078 
	C425.303772,237.161148 423.091064,237.023026 421.336975,237.210724 
	C417.038116,237.670700 412.720062,237.948853 408.418793,238.389206 
	C405.966492,238.640274 404.618256,237.867920 404.575684,235.195190 
	C404.554749,233.880417 404.068542,232.580215 403.922119,231.259109 
	C403.089661,223.748245 407.761536,220.392838 416.127747,222.864822 
	C416.329712,218.283203 415.235016,213.994904 413.967896,209.834198 
	C393.123749,141.388794 347.890350,99.353691 277.364807,86.402878 
	C233.691177,78.382965 192.030441,86.110893 153.942123,109.369812 
	C120.150444,130.004959 97.018028,159.551346 83.863922,196.928864 
	C77.450523,215.152588 73.905029,233.998535 73.568123,253.187088 
	C72.859291,293.558289 83.641060,330.552155 108.610107,362.820709 
	C130.551743,391.176819 158.523849,411.044250 192.790649,421.842560 
	C202.048187,424.759857 201.507385,424.820190 203.031219,416.114288 
	C203.303970,414.555939 203.318130,412.761505 205.034775,411.106995 
	C206.990234,411.413269 209.290421,411.617432 211.511841,412.150085 
	C218.822144,413.902924 219.306992,418.418671 216.463806,425.184418 
	C213.703705,431.752502 208.590683,430.798615 204.033813,432.278595 
	C203.251541,432.532654 201.594467,432.159363 201.329590,431.604370 
	C199.641724,428.067505 195.978577,428.679077 192.838348,427.335510 
M414.066925,231.278290 
	C413.831207,229.158203 413.994934,226.440720 410.829529,226.839600 
	C408.738831,227.103027 407.880646,229.210754 408.470520,231.115509 
	C409.608398,234.789810 411.869507,232.953323 414.066925,231.278290 
M207.512543,419.699036 
	C208.709518,422.827484 210.900253,422.386566 212.892044,420.855957 
	C214.101028,419.926880 213.699860,418.378754 212.436417,417.479218 
	C210.223267,415.903351 208.442169,416.055359 207.512543,419.699036 
z"/>
<path fill="#000000" opacity="1.000000" stroke="none" 
	d="
M134.034912,325.653503 
	C145.156113,324.723663 150.831192,317.701141 154.679962,308.678040 
	C158.440964,299.860748 159.580978,290.425568 160.660202,281.006592 
	C162.788803,262.429138 162.240997,243.795959 161.579483,225.176300 
	C161.361618,219.043579 160.391785,212.940628 159.908051,206.812851 
	C159.706329,204.257568 158.933273,201.509171 161.966232,199.698547 
	C167.541443,196.370224 170.741165,197.896454 171.191086,204.462158 
	C171.929871,215.243011 172.648773,226.028717 173.095520,236.823990 
	C173.237213,240.247986 174.527039,242.502380 177.422058,244.046585 
	C191.712341,251.668991 206.225693,252.190262 220.278915,244.035370 
	C233.849213,236.160751 238.698547,217.310989 232.236664,200.993454 
	C226.868408,187.437485 216.006866,181.774429 202.370285,180.315872 
	C187.417679,178.716583 173.301300,182.405243 159.477646,187.640427 
	C157.145767,188.523529 154.811066,189.437897 152.409302,190.083466 
	C150.941025,190.478119 149.227890,190.349197 148.667221,188.534760 
	C148.197052,187.013199 149.341034,186.083755 150.533600,185.365585 
	C150.957870,185.110107 151.417770,184.903961 151.880020,184.722748 
	C167.920700,178.434189 184.285400,173.459610 201.737381,173.777924 
	C210.795151,173.943161 219.582397,175.756622 227.624802,180.234268 
	C241.288803,187.841751 246.405792,200.209595 245.584518,214.992096 
	C244.400223,236.308807 230.659393,250.361649 208.560791,254.333389 
	C202.765625,255.374969 196.975250,255.366333 191.152069,255.304169 
	C185.291962,255.241638 179.764954,253.255386 173.594299,252.004913 
	C173.161438,258.175232 172.783417,264.078613 172.326172,269.975891 
	C171.335663,282.751160 170.126617,295.512878 165.203156,307.518219 
	C154.263626,334.193176 124.114952,335.669403 105.424400,321.495575 
	C102.509453,319.285065 103.358749,317.821442 106.346359,316.629150 
	C109.883644,315.217499 113.077942,315.321411 116.124535,317.906769 
	C121.176804,322.194153 126.846054,325.200256 134.034912,325.653503 
z"/>
<path fill="#000000" opacity="1.000000" stroke="none" 
	d="
M206.641754,312.778595 
	C210.223526,314.924774 213.365036,317.088837 216.592834,319.115417 
	C229.455719,327.191162 241.266388,324.323303 248.521103,311.002136 
	C254.833420,299.411407 256.898987,286.532257 258.592773,273.659546 
	C260.877594,256.295013 261.104309,238.810104 260.588654,221.339600 
	C260.260101,210.207321 259.280853,199.093094 258.528992,187.975128 
	C258.303314,184.637878 257.083405,182.607071 253.081985,183.869629 
	C251.231949,184.453369 249.128525,184.300873 247.136932,184.345322 
	C245.845337,184.374176 244.216019,184.545013 243.866241,182.818359 
	C243.473602,180.880066 245.080902,180.264862 246.509888,179.793289 
	C247.923080,179.326920 249.385880,178.963882 250.854156,178.718338 
	C272.646088,175.073746 294.628540,175.465591 316.590271,175.867691 
	C321.076508,175.949829 325.828796,175.927032 330.275879,178.408401 
	C328.531708,182.812103 325.016632,183.413040 321.611328,182.947586 
	C305.513611,180.747391 289.409454,181.275787 273.273529,182.180374 
	C270.232147,182.350876 269.049530,183.497208 269.340912,186.443405 
	C270.716614,200.353302 271.599976,214.289627 271.342377,228.276199 
	C271.276093,231.875763 273.593231,231.873657 276.057770,231.514664 
	C288.799957,229.658478 301.568604,229.388367 314.377930,230.677841 
	C316.188110,230.860046 318.087952,230.673615 319.540802,232.637711 
	C317.360138,236.088837 313.696960,236.260254 310.410217,235.872772 
	C299.266937,234.559128 288.130249,235.210129 276.984467,235.348053 
	C272.884979,235.398804 271.301849,237.030655 271.206360,241.400635 
	C270.788483,260.529205 269.749603,279.647064 264.147247,298.115143 
	C260.953827,308.642273 256.034973,318.217255 246.307831,324.409515 
	C232.496475,333.201691 213.181717,330.055145 200.356598,319.039825 
	C198.105911,317.106750 198.411621,315.330200 200.966141,313.978790 
	C202.594070,313.117584 204.338287,312.533844 206.641754,312.778595 
z"/>
<path fill="#000000" opacity="1.000000" stroke="none" 
	d="
M334.172028,282.744202 
	C341.226654,283.768951 344.829407,287.650391 344.196075,293.078339 
	C343.580353,298.355774 339.030426,301.954651 333.596313,301.271606 
	C329.067474,300.702332 326.415405,297.933563 325.752380,293.496307 
	C324.938751,288.051270 327.318848,285.004700 334.172028,282.744202 
z"/>
<path fill="#000000" opacity="1.000000" stroke="none" 
	d="
M249.199097,419.036133 
	C252.297119,424.046875 252.054550,428.618835 248.476425,432.715698 
	C245.781128,435.801788 242.192215,437.155762 238.126709,435.765381 
	C233.665955,434.239807 230.895935,431.226562 230.654343,426.250275 
	C230.422348,421.472137 232.063156,417.662201 236.525635,415.663330 
	C241.329895,413.511414 245.602051,414.543671 249.199097,419.036133 
M237.268860,420.744659 
	C236.832504,421.435913 236.294876,422.083893 235.977692,422.826080 
	C234.734589,425.735260 235.281677,428.337555 237.677414,430.396149 
	C239.494781,431.957733 241.555405,432.165680 243.551590,430.680206 
	C246.188675,428.717834 246.480270,425.886139 245.602783,423.109283 
	C244.325455,419.066986 241.444351,418.414154 237.268860,420.744659 
z"/>
<path fill="#000000" opacity="1.000000" stroke="none" 
	d="
M409.954285,266.355042 
	C405.435791,266.735626 403.578369,265.296387 404.494781,260.891510 
	C404.962097,258.645416 404.684143,256.249298 404.805206,253.924194 
	C404.870331,252.673080 405.320465,251.599564 406.806732,251.541122 
	C408.491699,251.474869 409.006012,252.516586 409.268616,254.028534 
	C409.693268,256.473175 408.130615,259.347412 410.604889,261.399536 
	C413.263611,261.029297 412.564453,258.988647 412.865845,257.503937 
	C413.215546,255.781143 412.940399,253.334045 415.506714,253.466309 
	C417.903656,253.589828 417.128906,255.907898 417.318085,257.438446 
	C417.399292,258.095581 417.342926,258.768494 417.388733,259.431488 
	C417.482635,260.790894 418.174957,261.626526 419.587372,261.595490 
	C421.050964,261.563354 421.558044,260.575012 421.622253,259.267303 
	C421.703796,257.606842 421.703674,255.938980 421.867706,254.287094 
	C421.996124,252.993973 422.724548,252.105621 424.145966,252.161285 
	C425.580322,252.217468 426.237701,253.181046 426.205231,254.476212 
	C426.122040,257.794495 426.011902,261.117218 425.739502,264.423920 
	C425.550262,266.721161 423.919983,267.406097 421.834595,267.250610 
	C418.022369,266.966461 414.211731,266.661407 409.954285,266.355042 
z"/>
<path fill="#000000" opacity="1.000000" stroke="none" 
	d="
M393.080505,336.917755 
	C398.915710,341.967926 399.759338,346.479095 396.026184,351.261292 
	C392.558411,355.703430 387.783936,356.048035 381.846558,352.270630 
	C380.168518,351.203003 378.479523,350.148132 376.852692,349.005951 
	C375.431793,348.008392 373.258850,347.229736 374.717255,344.835083 
	C376.355927,342.144409 378.097015,343.962280 379.736786,344.928650 
	C381.878662,346.190948 383.945618,347.584351 386.117035,348.791504 
	C388.548553,350.143280 390.941833,350.215271 392.735046,347.728668 
	C394.606934,345.133026 392.811829,343.284363 391.026672,341.796906 
	C388.999237,340.107513 386.640656,338.822174 384.509491,337.248199 
	C383.120972,336.222687 380.921295,335.308899 382.289551,333.008881 
	C383.905365,330.292755 385.761078,332.335693 387.351349,333.202271 
	C389.237671,334.230194 390.976074,335.529602 393.080505,336.917755 
z"/>
<path fill="#000000" opacity="1.000000" stroke="none" 
	d="
M279.158173,421.789246 
	C282.198486,425.371765 281.888733,428.466187 278.604889,431.158783 
	C275.667511,433.567200 268.302429,434.009216 266.294525,432.092957 
	C265.410156,431.248962 265.507812,430.318329 265.811432,429.354340 
	C266.359100,427.615540 267.702515,427.802277 269.071533,428.097656 
	C271.423706,428.605225 273.903931,429.553558 275.558441,426.274048 
	C273.411621,424.747437 271.056519,424.703583 268.833405,424.325958 
	C266.084473,423.859009 264.197876,422.522400 263.781708,419.634308 
	C263.328094,416.486145 264.422699,414.048401 267.387848,412.688354 
	C268.425385,412.212433 269.617004,411.667603 270.689362,411.754852 
	C273.079254,411.949341 276.942078,410.232117 277.254669,413.966431 
	C277.552704,417.526611 273.812592,415.795227 271.801544,416.239746 
	C270.695770,416.484131 269.399475,416.301910 269.020660,418.196716 
	C271.647644,420.944000 276.037964,419.141418 279.158173,421.789246 
z"/>
<path fill="#000000" opacity="1.000000" stroke="none" 
	d="
M350.680450,388.484680 
	C347.549133,390.641357 348.863068,392.553589 350.412506,394.509766 
	C351.557373,395.955139 352.911255,397.443420 350.713623,399.127319 
	C348.440552,400.869019 347.420380,398.893097 346.341156,397.537689 
	C343.447235,393.903320 340.702026,390.150177 337.792267,386.528961 
	C336.251770,384.611786 336.106628,383.093719 338.266602,381.545654 
	C340.557770,379.903564 342.715393,378.076385 344.966309,376.376343 
	C346.087982,375.529205 347.324127,374.964600 348.468597,376.335297 
	C349.578003,377.664001 348.830566,378.648193 347.920258,379.799225 
	C346.454407,381.652710 341.918915,382.364471 344.109680,385.524567 
	C345.958832,388.191864 347.916290,384.445435 349.882721,383.733521 
	C350.944489,383.349060 351.879486,383.296295 352.532806,384.250702 
	C353.934601,386.298584 352.131287,387.181183 350.680450,388.484680 
z"/>
<path fill="#000000" opacity="1.000000" stroke="none" 
	d="
M406.613281,321.295837 
	C404.428497,320.421783 402.543518,319.749329 400.753510,318.881134 
	C397.834290,317.465210 395.164368,316.421631 393.664490,320.694153 
	C393.240204,321.902649 392.143372,322.426086 390.818878,321.693512 
	C389.809082,321.135010 389.346802,320.198975 389.745148,319.186615 
	C391.445221,314.865997 393.218781,310.573120 395.045258,306.304260 
	C395.468262,305.315643 396.355103,304.821655 397.503510,305.286255 
	C398.744812,305.788483 399.359863,306.654327 399.001465,308.021942 
	C398.670288,309.285828 398.300873,310.539703 397.830719,312.217560 
	C401.618713,313.796082 405.280426,315.253265 408.879456,316.851624 
	C410.592438,317.612396 413.223328,318.083191 412.041199,320.886688 
	C410.842896,323.728455 408.740204,321.962158 406.613281,321.295837 
z"/>
<path fill="#000000" opacity="1.000000" stroke="none" 
	d="
M290.559326,406.540588 
	C294.473450,405.012054 298.029449,403.632568 301.602386,402.298584 
	C303.032623,401.764618 304.566071,401.266663 305.523651,403.041168 
	C306.572327,404.984375 305.083252,405.772675 303.707611,406.390381 
	C301.104156,407.559479 301.011230,409.278931 302.063202,411.654388 
	C303.202423,414.226868 304.155853,416.901978 304.934479,419.606018 
	C305.377441,421.144226 306.952179,423.184418 304.182404,424.206665 
	C301.695221,425.124664 301.057953,423.270081 300.409790,421.464874 
	C299.625061,419.279419 298.702087,417.142853 297.942169,414.949371 
	C296.886139,411.901123 296.302307,409.080078 291.534576,410.487640 
	C288.829437,411.286255 287.832092,409.029633 290.559326,406.540588 
z"/>
<path fill="#000000" opacity="1.000000" stroke="none" 
	d="
M410.193024,291.072021 
	C407.033783,289.994171 404.550415,289.702332 403.593445,293.403320 
	C403.204803,294.906494 402.301331,295.702637 400.654144,295.183136 
	C399.108673,294.695709 399.283783,293.482086 399.538422,292.323486 
	C400.428253,288.274811 401.309235,284.222473 402.317352,280.202606 
	C402.589569,279.117126 403.132904,277.885254 404.686646,278.168976 
	C406.302216,278.463959 406.928497,279.540710 406.540527,281.090088 
	C405.703522,284.432831 407.386902,285.476166 410.387390,285.942047 
	C413.490265,286.423767 416.536438,287.330597 419.565643,288.197418 
	C420.805237,288.552124 422.215271,289.075012 421.702545,290.936584 
	C421.224640,292.671814 420.141663,293.397339 418.345856,292.974823 
	C415.760040,292.366455 413.170959,291.772125 410.193024,291.072021 
z"/>
<path fill="#000000" opacity="1.000000" stroke="none" 
	d="
M363.505524,373.494629 
	C361.543884,371.672821 359.821014,370.114838 358.141174,368.511749 
	C356.920715,367.347015 356.433624,366.070404 357.783264,364.633148 
	C359.170593,363.155701 360.413574,363.711884 361.636322,364.864746 
	C363.929901,367.027252 366.346161,369.074799 368.492218,371.374634 
	C370.901825,373.956879 372.892029,373.845764 374.926727,371.031433 
	C375.602570,370.096619 376.451904,369.282990 377.254669,368.445312 
	C378.173187,367.486816 379.281281,367.218018 380.372955,368.041046 
	C381.684387,369.029755 381.693848,370.350769 380.663940,371.505127 
	C378.347015,374.101959 375.956696,376.635162 373.544464,379.144501 
	C372.032104,380.717743 370.575012,380.115356 369.212921,378.841217 
	C367.395538,377.141235 365.579376,375.439911 363.505524,373.494629 
z"/>
<path fill="#000000" opacity="1.000000" stroke="none" 
	d="
M329.827515,416.774231 
	C327.954163,417.663849 326.631042,417.599670 325.973083,415.730347 
	C325.495972,414.374786 326.285156,413.502472 327.327026,412.902710 
	C329.172638,411.840271 331.056335,410.837433 332.967407,409.897736 
	C334.104614,409.338501 335.264465,409.413025 335.966797,410.630707 
	C336.813721,412.098999 336.066376,413.128357 334.809784,413.884369 
	C333.264862,414.813843 331.692749,415.698181 329.827515,416.774231 
z"/>
</svg>