<svg version="1.1" id="Layer_1" xmlns="http://www.w3.org/2000/svg" xmlns:xlink="http://www.w3.org/1999/xlink" x="0px" y="0px"
	 width="100%" viewBox="0 0 500 500" enable-background="new 0 0 500 500" xml:space="preserve">
<path fill="#FFFFFF" opacity="1.000000" stroke="none" 
	d="
M291.000000,501.000000 
	C194.000031,501.000000 97.500046,501.000000 1.000052,501.000000 
	C1.000035,334.333405 1.000035,167.666794 1.000017,1.000141 
	C167.666565,1.000094 334.333130,1.000094 500.999756,1.000047 
	C500.999847,167.666519 500.999847,334.333038 500.999939,500.999786 
	C431.166656,501.000000 361.333344,501.000000 291.000000,501.000000 
M334.500000,299.004547 
	C364.591949,299.004547 394.683868,299.004547 424.823242,299.004547 
	C424.823242,266.773529 424.823242,235.049255 424.823242,203.222870 
	C308.738861,203.222870 192.893188,203.222870 76.965820,203.222870 
	C76.965820,235.218292 76.965820,266.985901 76.965820,299.004547 
	C162.614975,299.004547 248.057495,299.004547 334.500000,299.004547 
z"/>
<path fill="#020202" opacity="1.000000" stroke="none" 
	d="
M334.000000,299.004547 
	C248.057495,299.004547 162.614975,299.004547 76.965820,299.004547 
	C76.965820,266.985901 76.965820,235.218292 76.965820,203.222870 
	C192.893188,203.222870 308.738861,203.222870 424.823242,203.222870 
	C424.823242,235.049255 424.823242,266.773529 424.823242,299.004547 
	C394.683868,299.004547 364.591949,299.004547 334.000000,299.004547 
M420.997040,241.618774 
	C421.381104,241.542145 421.765198,241.465515 422.222137,240.405075 
	C422.222137,229.000504 422.222137,217.595917 422.222137,206.344635 
	C307.531067,206.344635 193.503235,206.344635 79.593475,206.344635 
	C79.593475,236.402847 79.593475,266.115997 79.593475,295.681091 
	C194.014557,295.681091 308.071686,295.681091 421.892151,295.681091 
	C421.892151,284.613373 421.892151,273.865448 421.892151,262.400360 
	C413.880829,266.749908 413.253235,257.313965 408.162079,254.958511 
	C407.969360,258.210785 407.835358,260.472626 407.698669,262.779572 
	C405.118866,262.779572 402.859375,262.779572 400.409363,262.779572 
	C400.409363,254.147186 400.409363,245.736588 400.409363,236.959274 
	C405.084167,236.959274 409.606415,236.496719 413.965973,237.138840 
	C416.441376,237.503464 418.650330,239.676865 420.997040,241.618774 
M414.512024,247.822021 
	C415.536133,241.857605 411.434601,243.078384 408.065826,243.074615 
	C408.065826,245.297256 408.065826,247.332275 408.065826,250.078201 
	C410.385834,249.446869 412.218994,248.948029 414.512024,247.822021 
M422.169006,245.911377 
	C421.586182,248.279129 420.620361,250.631058 420.521698,253.018829 
	C420.409546,255.734177 421.072144,258.481537 421.397980,261.214966 
	C421.872528,261.164490 422.347076,261.114044 422.821625,261.063568 
	C422.821625,255.331680 422.821625,249.599808 422.821625,242.870483 
	C422.415894,244.274506 422.290039,244.710052 422.169006,245.911377 
z"/>
<path fill="#FDFDFD" opacity="1.000000" stroke="none" 
	d="
M420.979279,241.035675 
	C418.650330,239.676865 416.441376,237.503464 413.965973,237.138840 
	C409.606415,236.496719 405.084167,236.959274 400.409363,236.959274 
	C400.409363,245.736588 400.409363,254.147186 400.409363,262.779572 
	C402.859375,262.779572 405.118866,262.779572 407.698669,262.779572 
	C407.835358,260.472626 407.969360,258.210785 408.162079,254.958511 
	C413.253235,257.313965 413.880829,266.749908 421.892151,262.400360 
	C421.892151,273.865448 421.892151,284.613373 421.892151,295.681091 
	C308.071686,295.681091 194.014557,295.681091 79.593475,295.681091 
	C79.593475,266.115997 79.593475,236.402847 79.593475,206.344635 
	C193.503235,206.344635 307.531067,206.344635 422.222137,206.344635 
	C422.222137,217.595917 422.222137,229.000504 421.879700,240.853363 
	C421.351227,241.212982 421.165253,241.124329 420.979279,241.035675 
M177.500000,289.999939 
	C201.756958,289.999939 226.013901,289.999939 250.254730,289.999939 
	C250.254730,263.660187 250.254730,237.930573 250.254730,212.294708 
	C195.334259,212.294708 140.749908,212.294708 86.265686,212.294708 
	C86.265686,238.325851 86.265686,264.061340 86.265686,289.999939 
	C116.544319,289.999939 146.522156,289.999939 177.500000,289.999939 
M321.020874,245.494751 
	C321.020874,242.708923 321.020874,239.923096 321.020874,237.074600 
	C318.339935,237.074600 316.096954,237.074600 313.428925,237.074600 
	C313.428925,241.098068 313.590668,244.897705 313.377838,248.676254 
	C313.206909,251.711288 314.621887,256.227905 309.420105,256.174225 
	C304.559662,256.124054 305.899078,251.826447 305.760132,248.926712 
	C305.572021,245.001053 305.713379,241.059616 305.713379,237.059662 
	C302.869843,237.059662 300.615692,237.059662 298.006409,237.059662 
	C298.006409,242.060745 297.938232,246.848495 298.021942,251.633575 
	C298.156464,259.326599 302.382629,263.635132 309.617401,263.593262 
	C316.842804,263.551422 320.871368,259.267944 321.014801,251.453308 
	C321.045258,249.793091 321.020325,248.131836 321.020874,245.494751 
M377.536926,260.479767 
	C378.204803,261.319000 378.846497,262.860016 379.544678,262.886047 
	C384.961121,263.087921 390.388428,262.997467 395.948425,262.997467 
	C395.948425,261.577881 395.977020,260.758942 395.940979,259.942810 
	C395.899506,259.004669 395.800873,258.069092 395.731506,257.188324 
	C385.152802,256.326935 385.152802,256.326935 385.642792,252.754242 
	C388.367432,252.754242 391.138306,252.754242 394.181519,252.754242 
	C394.181519,250.710449 394.181519,248.985657 394.181519,246.789368 
	C392.106476,246.789368 390.153656,246.838898 388.204285,246.777817 
	C385.242432,246.684998 385.243439,246.652405 385.603516,242.732971 
	C388.799377,242.732971 392.038055,242.732971 395.549591,242.732971 
	C395.429352,240.550919 395.334198,238.824097 395.245392,237.212708 
	C389.085968,237.212708 383.371674,237.212708 377.534821,237.212708 
	C377.534821,244.868393 377.534821,252.173203 377.536926,260.479767 
M358.616333,262.931763 
	C360.866791,262.931763 363.117249,262.931763 365.783264,262.931763 
	C365.783264,256.287384 365.783264,250.217636 365.783264,243.820419 
	C368.494568,243.820419 370.762329,243.820419 373.310120,243.820419 
	C373.310120,241.414841 373.310120,239.349930 373.310120,237.058670 
	C365.542023,237.058670 357.975525,237.058670 350.229950,237.058670 
	C350.229950,239.322067 350.229950,241.388107 350.229950,243.885071 
	C352.847198,243.885071 355.247223,243.885071 358.043243,243.885071 
	C358.043243,250.268326 358.043243,256.226654 358.616333,262.931763 
M254.844070,240.578278 
	C254.844070,247.993713 254.844070,255.409149 254.844070,262.683044 
	C257.708221,262.683044 259.939575,262.683044 262.500916,262.683044 
	C262.500916,260.084442 262.500916,257.809906 262.500916,255.177078 
	C265.424133,255.177078 268.015533,255.177078 270.827393,255.177078 
	C270.827393,252.899094 270.827393,250.987976 270.827393,248.689011 
	C268.050262,248.689011 265.460602,248.689011 262.671875,248.689011 
	C262.671875,246.807602 262.671875,245.320999 262.671875,243.384888 
	C265.990845,243.384888 268.909210,243.384888 271.795074,243.384888 
	C271.795074,241.004471 271.795074,239.082535 271.795074,236.859665 
	C266.753479,236.859665 261.948547,236.732559 257.163239,236.982346 
	C256.347260,237.024933 255.615540,238.680969 254.844070,240.578278 
M347.948334,237.568649 
	C340.279663,237.568649 332.611023,237.568649 324.900146,237.568649 
	C324.900146,239.387375 324.900146,241.439804 324.900146,243.661148 
	C327.570587,243.827820 329.947418,243.976166 332.706482,244.148361 
	C332.706482,250.626816 332.706482,256.677094 332.706482,262.712738 
	C335.361816,262.712738 337.584991,262.712738 340.124664,262.712738 
	C340.124664,256.350433 340.124664,250.269455 340.124664,243.790619 
	C342.848389,243.790619 345.249359,243.790619 348.008972,243.790619 
	C348.008972,241.759644 348.008972,240.135971 347.948334,237.568649 
M282.590363,263.020874 
	C286.513214,263.020874 290.436066,263.020874 294.301208,263.020874 
	C294.301208,260.321686 294.301208,258.257324 294.301208,255.836639 
	C290.725555,255.836639 287.469238,255.836639 283.861603,255.836639 
	C283.861603,249.402969 283.861603,243.322067 283.861603,237.193481 
	C281.126343,237.193481 278.766602,237.193481 276.438202,237.193481 
	C276.438202,245.939926 276.438202,254.326126 276.438202,263.020874 
	C278.356598,263.020874 279.992096,263.020874 282.590363,263.020874 
z"/>
<path fill="#EAEAEA" opacity="1.000000" stroke="none" 
	d="
M414.282074,248.135605 
	C412.218994,248.948029 410.385834,249.446869 408.065826,250.078201 
	C408.065826,247.332275 408.065826,245.297256 408.065826,243.074615 
	C411.434601,243.078384 415.536133,241.857605 414.282074,248.135605 
z"/>
<path fill="#4F4F4F" opacity="1.000000" stroke="none" 
	d="
M422.166595,245.528473 
	C422.290039,244.710052 422.415894,244.274506 422.821625,242.870483 
	C422.821625,249.599808 422.821625,255.331680 422.821625,261.063568 
	C422.347076,261.114044 421.872528,261.164490 421.397980,261.214966 
	C421.072144,258.481537 420.409546,255.734177 420.521698,253.018829 
	C420.620361,250.631058 421.586182,248.279129 422.166595,245.528473 
z"/>
<path fill="#4F4F4F" opacity="1.000000" stroke="none" 
	d="
M420.988159,241.327225 
	C421.165253,241.124329 421.351227,241.212982 421.843262,241.345261 
	C421.765198,241.465515 421.381104,241.542145 420.988159,241.327225 
z"/>
<path fill="#020202" opacity="1.000000" stroke="none" 
	d="
M177.000000,289.999939 
	C146.522156,289.999939 116.544319,289.999939 86.265686,289.999939 
	C86.265686,264.061340 86.265686,238.325851 86.265686,212.294708 
	C140.749908,212.294708 195.334259,212.294708 250.254730,212.294708 
	C250.254730,237.930573 250.254730,263.660187 250.254730,289.999939 
	C226.013901,289.999939 201.756958,289.999939 177.000000,289.999939 
M145.002167,260.480316 
	C146.213364,261.344971 147.338806,262.378815 148.651093,263.044037 
	C153.495483,265.499817 160.221283,264.665283 164.145126,261.249329 
	C168.090927,257.814270 169.725906,251.492233 167.823227,246.094757 
	C165.906891,240.658569 161.775192,237.792328 156.163437,237.357101 
	C150.828735,236.943390 146.125351,238.692017 143.413116,243.530640 
	C140.302032,249.080826 140.643921,254.688705 145.002167,260.480316 
M187.976303,264.306122 
	C191.984589,263.808868 194.993301,262.121399 195.362442,257.662628 
	C195.744629,253.046448 192.493835,251.334061 188.899643,250.040649 
	C187.501495,249.537521 185.986816,249.350159 184.602982,248.817078 
	C182.197937,247.890564 178.602554,247.144196 180.050964,243.766937 
	C180.748932,242.139465 184.181732,241.103958 186.457947,240.940643 
	C187.949738,240.833603 189.597916,242.753769 191.157166,243.794327 
	C192.166534,244.467911 193.141800,245.192581 195.233521,246.674530 
	C194.506531,240.809494 192.181534,238.310104 187.941589,237.575836 
	C183.630524,236.829208 179.450195,237.149277 176.961380,241.298096 
	C174.809921,244.884537 175.929016,248.140915 179.525894,250.146835 
	C181.662079,251.338165 184.112534,251.987900 186.455811,252.780167 
	C189.123962,253.682251 192.631744,254.258957 191.699493,258.024200 
	C190.771378,261.772766 187.095795,261.522339 184.211319,260.878296 
	C182.510773,260.498596 181.128067,258.761963 179.560150,257.697815 
	C178.537643,257.003784 177.439285,256.421539 175.595581,255.326248 
	C177.320999,262.645752 179.510300,264.142822 187.976303,264.306122 
M123.960159,255.378143 
	C124.787460,255.340378 125.620995,255.354706 126.441048,255.256470 
	C132.031097,254.586853 135.163849,251.260086 134.965179,246.237289 
	C134.769302,241.285309 131.357910,238.134369 125.721313,237.891266 
	C122.645187,237.758591 119.558640,237.867599 116.376160,237.867599 
	C116.376160,246.881393 116.376160,255.275024 116.376160,263.677826 
	C120.223228,264.878296 119.677094,262.301483 119.750221,260.204071 
	C119.829781,257.922516 118.772156,254.798874 123.960159,255.378143 
M217.439972,240.966705 
	C218.106064,240.966644 218.835785,241.142517 219.424835,240.929459 
	C220.601746,240.503769 221.701553,239.864883 222.833206,239.314041 
	C221.636414,238.834351 220.452011,237.980804 219.240662,237.940750 
	C214.416809,237.781158 209.581619,237.787338 204.757858,237.948563 
	C203.782593,237.981171 202.838821,238.955475 201.880539,239.495621 
	C202.891434,239.985901 203.864227,240.760712 204.921799,240.902359 
	C206.679092,241.137695 208.490860,240.966461 209.957306,240.966461 
	C210.371887,241.544434 210.552551,241.678864 210.554001,241.815170 
	C210.620148,248.132568 210.586945,254.452972 210.803024,260.764893 
	C210.840271,261.853424 211.928314,262.906036 212.530960,263.975220 
	C213.009460,262.955353 213.877045,261.944855 213.901764,260.914124 
	C214.037460,255.255615 213.842209,249.586899 214.081238,243.935226 
	C214.124466,242.913513 215.659775,241.954880 217.439972,240.966705 
z"/>
<path fill="#0D0D0D" opacity="1.000000" stroke="none" 
	d="
M321.020874,245.982910 
	C321.020325,248.131836 321.045258,249.793091 321.014801,251.453308 
	C320.871368,259.267944 316.842804,263.551422 309.617401,263.593262 
	C302.382629,263.635132 298.156464,259.326599 298.021942,251.633575 
	C297.938232,246.848495 298.006409,242.060745 298.006409,237.059662 
	C300.615692,237.059662 302.869843,237.059662 305.713379,237.059662 
	C305.713379,241.059616 305.572021,245.001053 305.760132,248.926712 
	C305.899078,251.826447 304.559662,256.124054 309.420105,256.174225 
	C314.621887,256.227905 313.206909,251.711288 313.377838,248.676254 
	C313.590668,244.897705 313.428925,241.098068 313.428925,237.074600 
	C316.096954,237.074600 318.339935,237.074600 321.020874,237.074600 
	C321.020874,239.923096 321.020874,242.708923 321.020874,245.982910 
z"/>
<path fill="#020202" opacity="1.000000" stroke="none" 
	d="
M377.535889,259.978882 
	C377.534821,252.173203 377.534821,244.868393 377.534821,237.212708 
	C383.371674,237.212708 389.085968,237.212708 395.245392,237.212708 
	C395.334198,238.824097 395.429352,240.550919 395.549591,242.732971 
	C392.038055,242.732971 388.799377,242.732971 385.603516,242.732971 
	C385.243439,246.652405 385.242432,246.684998 388.204285,246.777817 
	C390.153656,246.838898 392.106476,246.789368 394.181519,246.789368 
	C394.181519,248.985657 394.181519,250.710449 394.181519,252.754242 
	C391.138306,252.754242 388.367432,252.754242 385.642792,252.754242 
	C385.152802,256.326935 385.152802,256.326935 395.731506,257.188324 
	C395.800873,258.069092 395.899506,259.004669 395.940979,259.942810 
	C395.977020,260.758942 395.948425,261.577881 395.948425,262.997467 
	C390.388428,262.997467 384.961121,263.087921 379.544678,262.886047 
	C378.846497,262.860016 378.204803,261.319000 377.535889,259.978882 
z"/>
<path fill="#0D0D0D" opacity="1.000000" stroke="none" 
	d="
M358.329773,262.558350 
	C358.043243,256.226654 358.043243,250.268326 358.043243,243.885071 
	C355.247223,243.885071 352.847198,243.885071 350.229950,243.885071 
	C350.229950,241.388107 350.229950,239.322067 350.229950,237.058670 
	C357.975525,237.058670 365.542023,237.058670 373.310120,237.058670 
	C373.310120,239.349930 373.310120,241.414841 373.310120,243.820419 
	C370.762329,243.820419 368.494568,243.820419 365.783264,243.820419 
	C365.783264,250.217636 365.783264,256.287384 365.783264,262.931763 
	C363.117249,262.931763 360.866791,262.931763 358.329773,262.558350 
z"/>
<path fill="#040404" opacity="1.000000" stroke="none" 
	d="
M254.844482,240.084961 
	C255.615540,238.680969 256.347260,237.024933 257.163239,236.982346 
	C261.948547,236.732559 266.753479,236.859665 271.795074,236.859665 
	C271.795074,239.082535 271.795074,241.004471 271.795074,243.384888 
	C268.909210,243.384888 265.990845,243.384888 262.671875,243.384888 
	C262.671875,245.320999 262.671875,246.807602 262.671875,248.689011 
	C265.460602,248.689011 268.050262,248.689011 270.827393,248.689011 
	C270.827393,250.987976 270.827393,252.899094 270.827393,255.177078 
	C268.015533,255.177078 265.424133,255.177078 262.500916,255.177078 
	C262.500916,257.809906 262.500916,260.084442 262.500916,262.683044 
	C259.939575,262.683044 257.708221,262.683044 254.844070,262.683044 
	C254.844070,255.409149 254.844070,247.993713 254.844482,240.084961 
z"/>
<path fill="#020202" opacity="1.000000" stroke="none" 
	d="
M347.978638,238.040466 
	C348.008972,240.135971 348.008972,241.759644 348.008972,243.790619 
	C345.249359,243.790619 342.848389,243.790619 340.124664,243.790619 
	C340.124664,250.269455 340.124664,256.350433 340.124664,262.712738 
	C337.584991,262.712738 335.361816,262.712738 332.706482,262.712738 
	C332.706482,256.677094 332.706482,250.626816 332.706482,244.148361 
	C329.947418,243.976166 327.570587,243.827820 324.900146,243.661148 
	C324.900146,241.439804 324.900146,239.387375 324.900146,237.568649 
	C332.611023,237.568649 340.279663,237.568649 347.978638,238.040466 
z"/>
<path fill="#0D0D0D" opacity="1.000000" stroke="none" 
	d="
M282.108978,263.020874 
	C279.992096,263.020874 278.356598,263.020874 276.438202,263.020874 
	C276.438202,254.326126 276.438202,245.939926 276.438202,237.193481 
	C278.766602,237.193481 281.126343,237.193481 283.861603,237.193481 
	C283.861603,243.322067 283.861603,249.402969 283.861603,255.836639 
	C287.469238,255.836639 290.725555,255.836639 294.301208,255.836639 
	C294.301208,258.257324 294.301208,260.321686 294.301208,263.020874 
	C290.436066,263.020874 286.513214,263.020874 282.108978,263.020874 
z"/>
<path fill="#EAEAEA" opacity="1.000000" stroke="none" 
	d="
M144.757935,260.197815 
	C140.643921,254.688705 140.302032,249.080826 143.413116,243.530640 
	C146.125351,238.692017 150.828735,236.943390 156.163437,237.357101 
	C161.775192,237.792328 165.906891,240.658569 167.823227,246.094757 
	C169.725906,251.492233 168.090927,257.814270 164.145126,261.249329 
	C160.221283,264.665283 153.495483,265.499817 148.651093,263.044037 
	C147.338806,262.378815 146.213364,261.344971 144.757935,260.197815 
M145.730774,246.614685 
	C145.470490,247.899780 145.025040,249.178589 144.981171,250.471024 
	C144.759720,256.995239 148.920990,261.197968 155.328201,261.041595 
	C161.409164,260.893250 165.287277,256.566986 165.011475,250.257385 
	C164.816605,245.799179 162.626785,242.690140 158.461700,241.231140 
	C153.689056,239.559341 149.543884,241.220566 145.730774,246.614685 
z"/>
<path fill="#EAEAEA" opacity="1.000000" stroke="none" 
	d="
M187.589752,264.356689 
	C179.510300,264.142822 177.320999,262.645752 175.595581,255.326248 
	C177.439285,256.421539 178.537643,257.003784 179.560150,257.697815 
	C181.128067,258.761963 182.510773,260.498596 184.211319,260.878296 
	C187.095795,261.522339 190.771378,261.772766 191.699493,258.024200 
	C192.631744,254.258957 189.123962,253.682251 186.455811,252.780167 
	C184.112534,251.987900 181.662079,251.338165 179.525894,250.146835 
	C175.929016,248.140915 174.809921,244.884537 176.961380,241.298096 
	C179.450195,237.149277 183.630524,236.829208 187.941589,237.575836 
	C192.181534,238.310104 194.506531,240.809494 195.233521,246.674530 
	C193.141800,245.192581 192.166534,244.467911 191.157166,243.794327 
	C189.597916,242.753769 187.949738,240.833603 186.457947,240.940643 
	C184.181732,241.103958 180.748932,242.139465 180.050964,243.766937 
	C178.602554,247.144196 182.197937,247.890564 184.602982,248.817078 
	C185.986816,249.350159 187.501495,249.537521 188.899643,250.040649 
	C192.493835,251.334061 195.744629,253.046448 195.362442,257.662628 
	C194.993301,262.121399 191.984589,263.808868 187.589752,264.356689 
z"/>
<path fill="#EAEAEA" opacity="1.000000" stroke="none" 
	d="
M123.509598,255.379135 
	C118.772156,254.798874 119.829781,257.922516 119.750221,260.204071 
	C119.677094,262.301483 120.223228,264.878296 116.376160,263.677826 
	C116.376160,255.275024 116.376160,246.881393 116.376160,237.867599 
	C119.558640,237.867599 122.645187,237.758591 125.721313,237.891266 
	C131.357910,238.134369 134.769302,241.285309 134.965179,246.237289 
	C135.163849,251.260086 132.031097,254.586853 126.441048,255.256470 
	C125.620995,255.354706 124.787460,255.340378 123.509598,255.379135 
M125.130280,252.146255 
	C129.339050,252.124435 131.720978,250.251999 131.273026,245.804138 
	C130.849808,241.601807 127.968102,240.500824 120.031219,241.419144 
	C120.031219,244.917068 120.031219,248.423416 120.031219,252.177795 
	C121.624542,252.177795 122.919403,252.177795 125.130280,252.146255 
z"/>
<path fill="#FDFDFD" opacity="1.000000" stroke="none" 
	d="
M216.973099,240.966919 
	C215.659775,241.954880 214.124466,242.913513 214.081238,243.935226 
	C213.842209,249.586899 214.037460,255.255615 213.901764,260.914124 
	C213.877045,261.944855 213.009460,262.955353 212.530975,263.975220 
	C211.928314,262.906036 210.840271,261.853424 210.803024,260.764893 
	C210.586945,254.452972 210.620148,248.132568 210.554001,241.815170 
	C210.552551,241.678864 210.371887,241.544434 209.957306,240.966461 
	C208.490860,240.966461 206.679092,241.137695 204.921799,240.902359 
	C203.864227,240.760712 202.891434,239.985901 201.880539,239.495621 
	C202.838821,238.955475 203.782593,237.981171 204.757858,237.948563 
	C209.581619,237.787338 214.416809,237.781158 219.240662,237.940750 
	C220.452011,237.980804 221.636414,238.834351 222.833206,239.314056 
	C221.701553,239.864883 220.601746,240.503769 219.424835,240.929459 
	C218.835785,241.142517 218.106064,240.966644 216.973099,240.966919 
z"/>
<path fill="#040404" opacity="1.000000" stroke="none" 
	d="
M145.880066,246.243057 
	C149.543884,241.220566 153.689056,239.559341 158.461700,241.231140 
	C162.626785,242.690140 164.816605,245.799179 165.011475,250.257385 
	C165.287277,256.566986 161.409164,260.893250 155.328201,261.041595 
	C148.920990,261.197968 144.759720,256.995239 144.981171,250.471024 
	C145.025040,249.178589 145.470490,247.899780 145.880066,246.243057 
z"/>
<path fill="#040404" opacity="1.000000" stroke="none" 
	d="
M124.672272,252.162018 
	C122.919403,252.177795 121.624542,252.177795 120.031219,252.177795 
	C120.031219,248.423416 120.031219,244.917068 120.031219,241.419144 
	C127.968102,240.500824 130.849808,241.601807 131.273026,245.804138 
	C131.720978,250.251999 129.339050,252.124435 124.672272,252.162018 
z"/>
</svg>